<svg xmlns="http://www.w3.org/2000/svg" width="45.67" height="39"><path fill="#519c2c" d="M16.05 39c-3.259 0-3.852-3.04-4.54-6.559a29.223 29.223 0 0 0-2.422-7.975 55.961 55.961 0 0 1-2.592-5.707l1.626-.613a54.487 54.487 0 0 0 2.515 5.533 31.075 31.075 0 0 1 2.579 8.428c.73 3.742 1.164 5.155 2.834 5.155 1.619 0 2.365-3.057 3.024-5.753.757-3.1 1.471-6.025 3.761-6.025v1.738c-.925 0-1.562 2.606-2.073 4.7C19.952 35.24 19.033 39 16.05 39ZM5.128 13.919a25.524 25.524 0 0 1-.409-4.623c0-5.647 3.617-9.3 9.214-9.3a17.026 17.026 0 0 1 6.266 1.167 7.907 7.907 0 0 0 2.636.623v1.738a9.419 9.419 0 0 1-3.213-.722 15.329 15.329 0 0 0-5.688-1.068c-4.681 0-7.476 2.825-7.476 7.558a23.727 23.727 0 0 0 .381 4.311ZM40.662 13.197l-1.718-.262a23.9 23.9 0 0 0 .269-3.642c0-4.733-2.795-7.558-7.476-7.558a15.329 15.329 0 0 0-5.688 1.068 9.416 9.416 0 0 1-3.214.722V1.787a7.906 7.906 0 0 0 2.636-.623 17.024 17.024 0 0 1 6.265-1.167c5.6 0 9.214 3.649 9.214 9.3a25.635 25.635 0 0 1-.288 3.9ZM29.62 39c-2.983 0-3.9-3.76-4.711-7.078-.512-2.094-1.148-4.7-2.074-4.7v-1.734c2.29 0 3 2.927 3.762 6.026.659 2.7 1.4 5.753 3.023 5.753 1.67 0 2.1-1.413 2.835-5.155a31.082 31.082 0 0 1 2.579-8.428 51.36 51.36 0 0 0 2.716-6.083l1.637.583a54.484 54.484 0 0 1-2.8 6.286 29.213 29.213 0 0 0-2.423 7.975C33.473 35.961 32.879 39 29.62 39ZM28.265 21.846H17.41a.869.869 0 0 1-.869-.869V10.122a.869.869 0 0 1 .869-.869h10.855a.869.869 0 0 1 .869.869v10.855a.869.869 0 0 1-.869.869Zm-9.986-1.738h9.118v-9.117h-9.115Z"></path><path fill="#519c2c" d="M28.265 14.68H45.67v1.738H28.265zM0 14.68h17.405v1.738H0z"></path></svg>